<?xml version="1.0" encoding="UTF-8"?>
<mxGraphModel dx="1120" dy="434" grid="1" gridSize="10" guides="1" tooltips="1" connect="1" arrows="1" fold="1" page="1" pageScale="1" pageWidth="850" pageHeight="1100" math="0" shadow="0">
  <root>
    <mxCell id="0" />
    <mxCell id="1" parent="0" />

    <!-- Tabla Usuarios -->
    <mxCell id="2" value="Usuarios" style="shape=table;startSize=30;container=1;childLayout=tableLayout;fixedRows=1;" parent="1" vertex="1">
      <mxGeometry x="50" y="50" width="250" height="180" as="geometry" />
    </mxCell>
    <mxCell id="3" value="PK" style="shape=partialRectangle;fillColor=none;" parent="2" vertex="1">
      <mxGeometry width="30" height="30" as="geometry" />
    </mxCell>
    <mxCell id="4" value="id SERIAL NOT NULL" style="shape=partialRectangle;fillColor=none;align=left;spacingLeft=6;" parent="2" vertex="1">
      <mxGeometry x="30" width="220" height="30" as="geometry" />
    </mxCell>
    <mxCell id="5" value="nombre VARCHAR(255)" style="shape=partialRectangle;fillColor=none;align=left;spacingLeft=6;" parent="2" vertex="1">
      <mxGeometry x="30" width="220" height="30" as="geometry" />
    </mxCell>

    <!-- Tabla Oportunidades -->
    <mxCell id="7" value="Oportunidades" style="shape=table;startSize=30;container=1;childLayout=tableLayout;fixedRows=1;" parent="1" vertex="1">
      <mxGeometry x="400" y="50" width="250" height="180" as="geometry" />
    </mxCell>
    <mxCell id="8" value="PK" style="shape=partialRectangle;fillColor=none;" parent="7" vertex="1">
      <mxGeometry width="30" height="30" as="geometry" />
    </mxCell>
    <mxCell id="9" value="id SERIAL NOT NULL" style="shape=partialRectangle;fillColor=none;align=left;spacingLeft=6;" parent="7" vertex="1">
      <mxGeometry x="30" width="220" height="30" as="geometry" />
    </mxCell>

    <!-- Tabla Postulaciones -->
    <mxCell id="12" value="Postulaciones" style="shape=table;startSize=30;container=1;childLayout=tableLayout;fixedRows=1;" parent="1" vertex="1">
      <mxGeometry x="250" y="250" width="250" height="150" as="geometry" />
    </mxCell>
    <mxCell id="14" value="id SERIAL NOT NULL" style="shape=partialRectangle;fillColor=none;align=left;spacingLeft=6;" parent="12" vertex="1">
      <mxGeometry x="30" width="220" height="30" as="geometry" />
    </mxCell>
    <mxCell id="15" value="usuario_id INT NOT NULL" style="shape=partialRectangle;fillColor=none;align=left;spacingLeft=6;" parent="12" vertex="1">
      <mxGeometry x="30" width="220" height="30" as="geometry" />
    </mxCell>

    <!-- Relación Usuarios - Postulaciones -->
    <mxCell id="17" value="" style="edgeStyle=entityRelationEdgeStyle;endArrow=ERzeroToMany;startArrow=ERone;" parent="1" source="2" target="12" edge="1">
      <mxGeometry relative="1" as="geometry" />
    </mxCell>

    <!-- Relación Oportunidades - Postulaciones -->
    <mxCell id="18" value="" style="edgeStyle=entityRelationEdgeStyle;endArrow=ERzeroToMany;startArrow=ERone;" parent="1" source="7" target="12" edge="1">
      <mxGeometry relative="1" as="geometry" />
    </mxCell>

  </root>
</mxGraphModel>
